<svg xmlns="http://www.w3.org/2000/svg" width="40" height="40" viewBox="0 0 40 40"><g><g><g><path fill="#c2b9ac" d="M20.576 8.258h2.344a4.162 4.162 0 0 0 3.58 4.115V11.03c0-3.584-2.916-6.5-6.5-6.5a6.507 6.507 0 0 0-6.5 6.5v1.383h2.92a4.16 4.16 0 0 0 4.156-4.156z"/></g><g><path fill="#c2b9ac" d="M9.01 19.968h2.211a9.9 9.9 0 0 1-.064-1.129v-7.808c0-4.876 3.967-8.844 8.843-8.844 4.876 0 8.843 3.968 8.843 8.844v7.808c0 .382-.022.759-.064 1.129h2.21c1.76 0 3.191-1.432 3.191-3.191V13.22a3.194 3.194 0 0 0-3.06-3.187C30.544 4.406 25.776 0 20 0 14.223 0 9.455 4.406 8.88 10.034a3.194 3.194 0 0 0-3.06 3.187v3.556c0 1.76 1.431 3.19 3.19 3.19z"/></g><g><path fill="#c2b9ac" d="M20 25.833c1.995 0 3.783-.972 4.976-2.5h-3.631V20.99h4.84c.204-.678.315-1.4.315-2.15v-4.108a6.503 6.503 0 0 1-4.752-2.755 6.497 6.497 0 0 1-5.328 2.78H13.5v4.082c0 3.857 2.916 6.994 6.5 6.994z"/></g><g><path fill="#c2b9ac" d="M26.583 28.195v-3.128c-1.62 1.908-3.971 3.11-6.583 3.11-2.595 0-4.932-1.186-6.551-3.072v3.086l-.012.004c1.539 1.196 4.091 2.832 6.553 2.832 2.473 0 5.042-1.635 6.593-2.832z"/></g><g><path fill="#c2b9ac" d="M37.045 31.631l-7.835-2.569c-1.327 1.182-5.214 4.309-9.22 4.309-4.012 0-7.869-3.134-9.18-4.315l-7.856 2.575A4.283 4.283 0 0 0 0 35.709V40h8.07v-4.063h2.343V40h19.174v-4.063h2.344V40H40v-4.291a4.283 4.283 0 0 0-2.955-4.078z"/></g></g></g></svg>