<svg xmlns="http://www.w3.org/2000/svg" width="105" height="106" viewBox="0 0 105 106"><g><g><g><path fill="#f0f0f0" d="M53.683 27.456l29.964-16.614A52.11 52.11 0 0 0 52.649.676a52.1 52.1 0 0 0-30.097 9.52z"/></g><g><path fill="#f0f0f0" d="M95.576 23.072L84.864 44.741l-5.16 10.438-3.186 6.447-5.165 10.44L59.134 96.78l-4.21 8.518c27.852-1.192 50.061-24.143 50.061-52.286a52.089 52.089 0 0 0-9.409-29.94z"/></g><g><path fill="#f0f0f0" d="M46.161 96.781L31.455 67.033l-5.163-10.44-1.064-2.15 2.472 1.37 11.994 6.65 3.412 1.891L52.65 83.66l8.525-17.24 5.16-10.44 3.187-6.446 5.162-10.438 6.8-13.755-15.805 8.761-11.994 6.65-11.995-6.65-18.651-10.34L28.63 35.08l5.648 3.13 11.995 6.65 12.288 6.814-5.16 10.44L37.692 53.4l-3.412-1.89-11.994-6.65-2.47-1.37-9.057-18.322-1.039-2.096A52.097 52.097 0 0 0 .311 53.016c0 28.142 22.214 51.093 50.065 52.284z"/></g></g></g></svg>