<svg xmlns="http://www.w3.org/2000/svg" width="394" height="394" viewBox="0 0 394 394"><g><g><path fill="#292929" d="M201.102 101.16L313.576 38.8C281.002 14.825 240.77.64 197.222.64c-42.053 0-81.019 13.231-112.973 35.731z"/></g><g><path fill="#292929" d="M358.356 84.707l-40.212 81.335-19.368 39.18-11.96 24.2-19.386 39.187-45.863 92.77-15.801 31.976c104.541-4.475 187.906-90.623 187.906-196.264 0-41.803-13.065-80.542-35.316-112.384z"/></g><g><path fill="#292929" d="M172.87 361.384l-55.2-111.666-19.378-39.186-3.995-8.07 9.278 5.14 45.022 24.96 12.806 7.101 35.821 72.467 31.999-64.71 19.367-39.186 11.963-24.2 19.377-39.18 25.527-51.632-59.328 32.887-45.022 24.961-45.021-24.96-70.012-38.813 20.998 42.481 21.199 11.752 45.022 24.964 46.128 25.575-19.368 39.183-58.976-32.702-12.806-7.095-45.023-24.961-9.268-5.139-34-68.778-3.898-7.865C13.832 116.553.766 155.305.766 197.105c0 105.634 83.383 191.783 187.925 196.255z"/></g></g></svg>