<svg xmlns="http://www.w3.org/2000/svg" width="40" height="40" viewBox="0 0 40 40"><g><g><g><path fill="#e24723" d="M12.083 11.25h-1.666v1.667a1.25 1.25 0 0 1-2.5 0V11.25H6.25a1.25 1.25 0 0 1 0-2.5h1.667V7.083a1.25 1.25 0 0 1 2.5 0V8.75h1.666a1.25 1.25 0 0 1 0 2.5zM4.583 0A4.583 4.583 0 0 0 0 4.583v14.584h19.167V0z"/></g><g><path fill="#e24723" d="M12.55 31.617a1.25 1.25 0 1 1-1.767 1.766l-1.2-1.2-1.2 1.2a1.247 1.247 0 0 1-1.766 0 1.25 1.25 0 0 1 0-1.768l1.2-1.2-1.2-1.2a1.25 1.25 0 1 1 1.768-1.768l1.2 1.2 1.2-1.2a1.25 1.25 0 1 1 1.768 1.768l-1.2 1.2zM0 20.833v14.584A4.583 4.583 0 0 0 4.583 40h14.584V20.833z"/></g><g><path fill="#e24723" d="M34.583 10.833h-7.5a1.25 1.25 0 0 1 0-2.5h7.5a1.25 1.25 0 0 1 0 2.5zM35.417 0H20.833v19.167H40V4.583A4.583 4.583 0 0 0 35.417 0z"/></g><g><path fill="#e24723" d="M34.167 29.167h-7.5a1.25 1.25 0 0 1 0-2.5h7.5a1.25 1.25 0 0 1 0 2.5zm0 5h-7.5a1.25 1.25 0 0 1 0-2.5h7.5a1.25 1.25 0 0 1 0 2.5zM20.833 20.833V40h14.584A4.583 4.583 0 0 0 40 35.417V20.833z"/></g></g></g></svg>