<svg xmlns="http://www.w3.org/2000/svg" width="83" height="84" viewBox="0 0 83 84"><g><g><g><path fill="#e24723" d="M42.465 21.815L66.14 8.688A41.172 41.172 0 0 0 41.648.656a41.165 41.165 0 0 0-23.78 7.52z"/></g><g><path fill="#e24723" d="M75.566 18.351l-8.464 17.12-4.077 8.248-2.518 5.094-4.08 8.248-9.654 19.528-3.326 6.73C65.452 82.379 83 64.245 83 42.008c0-8.799-2.75-16.953-7.434-23.656z"/></g><g><path fill="#e24723" d="M36.522 76.59l-11.62-23.505-4.078-8.249-.841-1.698 1.953 1.082 9.477 5.254 2.696 1.495 7.54 15.253 6.735-13.62 4.077-8.25 2.518-5.093 4.079-8.247 5.373-10.868-12.488 6.922-9.477 5.254-9.477-5.254-14.737-8.17 4.42 8.942 4.463 2.474 9.476 5.255 9.71 5.383-4.077 8.248-12.414-6.884-2.695-1.493-9.478-5.254-1.95-1.082L8.55 20.008l-.82-1.656A41.162 41.162 0 0 0 .294 42.01c0 22.236 17.552 40.37 39.557 41.31z"/></g></g></g></svg>