<svg xmlns="http://www.w3.org/2000/svg" width="40" height="46" viewBox="0 0 40 46"><g><g><g><path fill="#e24723" d="M36.25 45.714H2.321A2.324 2.324 0 0 1 0 43.393v-3.929a2.324 2.324 0 0 1 2.321-2.321H36.25a2.324 2.324 0 0 1 2.321 2.321v3.929a2.324 2.324 0 0 1-2.321 2.321z"/></g><g><path fill="#e24723" d="M13.304 11.429h11.964c.246 0 .446-.2.446-.447V6.161c0-.247-.2-.447-.446-.447H13.304c-.247 0-.447.2-.447.447v4.821c0 .247.2.447.447.447z"/></g><g><path fill="#e24723" d="M15.714 26.429A3.575 3.575 0 0 0 19.286 30a3.575 3.575 0 0 0 3.571-3.571c0-1.161-1.616-3.727-3.215-5.847a.446.446 0 0 0-.711 0c-1.6 2.121-3.217 4.688-3.217 5.847z"/></g><g><path fill="#e24723" d="M37.143 21.382c0 1.596-.496 3.121-1.435 4.412l-1.422 1.956V8.74l2.857 1.429zm-8.572-9.418a2.324 2.324 0 0 1-2.321 2.322H12.321A2.324 2.324 0 0 1 10 11.964V5.18a2.324 2.324 0 0 1 2.321-2.322H26.25a2.324 2.324 0 0 1 2.321 2.322zm-9.285 20.893a6.436 6.436 0 0 1-6.429-6.428c0-1.463.902-3.47 2.756-6.137 1.277-1.838 2.537-3.305 2.59-3.367a1.43 1.43 0 0 1 2.166 0c.052.062 1.312 1.53 2.59 3.367 1.854 2.667 2.755 4.674 2.755 6.137a6.436 6.436 0 0 1-6.428 6.428zM39.21 8.008l-4.924-2.462V4.107A4.107 4.107 0 0 0 30.179 0H8.393a4.107 4.107 0 0 0-4.107 4.107V33.84c0 .247.2.447.446.447H33.84c.247 0 .447-.2.447-.447v-1.232l3.733-5.133A10.293 10.293 0 0 0 40 21.382V9.286c0-.541-.306-1.036-.79-1.278z"/></g></g></g></svg>