<svg xmlns="http://www.w3.org/2000/svg" width="44" height="44" viewBox="0 0 44 44"><defs><linearGradient id="wfhka" x1="22" x2="22" y1="0" y2="44" gradientUnits="userSpaceOnUse"><stop offset="0" stop-color="#e24723"/><stop offset="1" stop-color="#de240c"/></linearGradient></defs><g><g><path fill="url(#wfhka)" d="M0 22C0 9.85 9.85 0 22 0s22 9.85 22 22-9.85 22-22 22S0 34.15 0 22z"/></g><g><path fill="none" stroke="#fff" stroke-linecap="round" stroke-linejoin="round" stroke-miterlimit="20" stroke-width="2" d="M29.633 28.769a1.529 1.529 0 0 1-1.666 1.529 15.13 15.13 0 0 1-6.598-2.347 14.908 14.908 0 0 1-4.587-4.588 15.13 15.13 0 0 1-2.347-6.628 1.529 1.529 0 0 1 1.521-1.667h2.294a1.529 1.529 0 0 1 1.529 1.315c.097.734.276 1.455.535 2.149a1.53 1.53 0 0 1-.344 1.613l-.971.97a12.232 12.232 0 0 0 4.587 4.588l.971-.971a1.53 1.53 0 0 1 1.613-.344 9.816 9.816 0 0 0 2.148.535 1.529 1.529 0 0 1 1.315 1.552zM24.32 14.304a6.88 6.88 0 0 1 6.078 6.07zm0 3.058a3.823 3.823 0 0 1 3.02 3.02z"/></g></g></svg>