<svg xmlns="http://www.w3.org/2000/svg" width="247" height="50" viewBox="0 0 247 50"><defs><linearGradient id="73aia" x1="25.23" x2="25.23" y1="56.23" y2="-.02" gradientUnits="userSpaceOnUse"><stop offset="0" stop-color="#e24723"/><stop offset="1" stop-color="#de240c"/></linearGradient><linearGradient id="73aib" x1="38.06" x2="38.06" y1="56.22" y2="-.02" gradientUnits="userSpaceOnUse"><stop offset="0" stop-color="#e24723"/><stop offset="1" stop-color="#de240c"/></linearGradient><linearGradient id="73aic" x1="19.4" x2="19.4" y1="56.22" y2="-.02" gradientUnits="userSpaceOnUse"><stop offset="0" stop-color="#e24723"/><stop offset="1" stop-color="#de240c"/></linearGradient></defs><g><g><g><g><path fill="#1c1b19" d="M86.007 5.943c1.014 1.014 1.52 2.242 1.52 3.682 0 1.443-.506 2.676-1.52 3.697-1.015 1.021-2.243 1.533-3.685 1.533H77.12V4.422h5.203c1.442 0 2.67.506 3.685 1.52zM72.697 0v34.247h4.422V19.25h5.537c2.518-.061 4.682-.996 6.487-2.803.08-.078.143-.15.191-.214.3-.348.602-.706.903-1.07 1.078-1.52 1.648-3.247 1.71-5.18V9.27c-.062-2.487-.998-4.644-2.804-6.464C87.24.936 84.968 0 82.323 0z"/></g><g><path fill="#1c1b19" d="M95.655 20.95c1.014-1.006 2.241-1.51 3.683-1.51 1.442 0 2.666.504 3.672 1.51 1.007 1.006 1.51 2.238 1.51 3.695 0 1.442-.503 2.666-1.51 3.672-1.006 1.006-2.23 1.509-3.672 1.509-1.442 0-2.67-.503-3.683-1.509-1.015-1.006-1.52-2.23-1.52-3.672 0-1.457.505-2.69 1.52-3.696zm8.865 13.297h4.422V15.043h-4.422v1.498c-1.521-.997-3.248-1.498-5.182-1.498-2.645 0-4.907.943-6.785 2.829-1.877 1.886-2.816 4.143-2.816 6.773 0 2.662.939 4.928 2.816 6.797 1.878 1.87 4.14 2.805 6.785 2.805 1.934 0 3.66-.5 5.182-1.498z"/></g><g><path fill="#1c1b19" d="M128.476 34.247v-1.52c-1.522.998-3.247 1.497-5.182 1.497-2.647 0-4.907-.942-6.785-2.828-1.876-1.886-2.816-4.144-2.816-6.774V15.02h4.42v9.602h-.024c0 1.458.507 2.69 1.52 3.696 1.014 1.006 2.245 1.51 3.685 1.51 1.442 0 2.667-.504 3.672-1.51 1.005-1.005 1.51-2.238 1.51-3.696V15.02h4.419v19.227z"/></g><g><path fill="#1c1b19" d="M142.07 34.247h-4.42V0h4.42z"/></g><g><path fill="#1c1b19" d="M169.162 9.436v24.81h-4.422V0h4.826l6.225 15.497L182.043 0h4.824v34.247h-4.42V9.46l-6.656 16.47z"/></g><g><path fill="#1c1b19" d="M196.326 20.95c1.015-1.006 2.242-1.51 3.686-1.51 1.44 0 2.663.504 3.672 1.51 1.004 1.006 1.509 2.238 1.509 3.695 0 1.442-.505 2.666-1.509 3.672-1.01 1.006-2.231 1.509-3.672 1.509-1.444 0-2.67-.503-3.686-1.509-1.013-1.006-1.517-2.23-1.517-3.672 0-1.457.504-2.69 1.517-3.696zm8.867 13.297h4.417V15.043h-4.417v1.498c-1.524-.997-3.25-1.498-5.18-1.498-2.649 0-4.91.943-6.788 2.829-1.878 1.886-2.816 4.143-2.816 6.773 0 2.662.938 4.928 2.816 6.797 1.878 1.87 4.139 2.805 6.787 2.805 1.93 0 3.657-.5 5.18-1.498z"/></g><g><path fill="#1c1b19" d="M218.784 24.622v9.625h-4.42V15.043h4.42v1.474a9.19 9.19 0 0 1 3.898-1.45v4.468c-.903.223-1.694.682-2.376 1.38-1.014 1.013-1.522 2.25-1.522 3.707z"/></g><g><path fill="#1c1b19" d="M231.856 28.496l2.972-3.85 2.205-2.876 5.184-6.726h4.42l-7.39 9.601 7.39 9.602h-4.42l-5.184-6.724-5.177 6.724h-4.42V0h4.42z"/></g></g><g><g><path fill="#e24723" d="M78.64 42.112v1.408h-2.175V50h-1.59l-.002-6.48h-2.175l-.001-1.407z"/></g><g><path fill="#e24723" d="M99.674 43.52c.745 0 1.146.571 1.146 1.202 0 .63-.378 1.168-1.27 1.168h-1.273v-2.37zM102.561 50l-2.039-2.897c1.11-.194 1.9-1.293 1.9-2.416 0-1.292-.78-2.574-2.588-2.574h-3.148V50h1.591v-2.827h.538l1.879 2.827z"/></g><g><path fill="#e24723" d="M120.735 47.081l-.001-5.106h1.59l.003 5.003c0 1.076.687 1.511 1.42 1.511.745-.002 1.43-.436 1.43-1.51v-5.004h1.59v5.106c0 1.807-1.407 2.918-3.02 2.918-1.604 0-3.012-1.11-3.012-2.918z"/></g><g><path fill="#e24723" d="M144.976 45.914c0-2.221 1.773-4.076 4.005-4.076 1.34 0 2.506.64 3.217 1.635l-1.213.883c-.446-.63-1.111-1.018-1.947-1.018-1.43 0-2.471 1.167-2.471 2.576 0 1.408 1.03 2.587 2.461 2.587.847-.002 1.51-.39 1.957-1.02l1.214.882A3.921 3.921 0 0 1 148.983 50c-2.233 0-4.007-1.842-4.007-4.086z"/></g><g><path fill="#e24723" d="M176.512 50h-2.06l-2.541-3.17V50h-1.59l-.004-7.887h1.594v3.228l2.197-3.228 1.91-.001-2.737 3.915z"/></g><g><path fill="#e24723" d="M194.216 49.999v-7.887h1.59V50z"/></g><g><path fill="#e24723" d="M218.881 42.113l1.592-.001.003 7.887h-1.435l-2.86-4.945V50h-1.59l-.002-7.886h1.478L218.883 47z"/></g><g><path fill="#e24723" d="M238.774 45.926c0-2.245 1.76-4.088 4.029-4.088 1.188 0 2.231.492 2.92 1.26l-1.158.995a2.404 2.404 0 0 0-1.762-.778c-1.376 0-2.44 1.2-2.44 2.61 0 1.407 1.045 2.644 2.484 2.643 1.031 0 2.05-.618 2.05-1.533h-2.233v-1.293l3.973-.001c0 2.92-1.613 4.259-3.753 4.259-2.381 0-4.11-1.842-4.11-4.074z"/></g></g><g><g><path fill="url(#73aia)" d="M25.506 12.798l14.32-7.94A24.903 24.903 0 0 0 25.011 0a24.899 24.899 0 0 0-14.383 4.55z"/></g><g><path fill="url(#73aib)" d="M45.527 10.703l-5.12 10.355-2.466 4.988-1.523 3.081-2.468 4.99-5.839 11.81L26.1 50c13.31-.57 23.924-11.538 23.924-24.988a24.893 24.893 0 0 0-4.496-14.308z"/></g><g><path fill="url(#73aic)" d="M21.911 45.928l-7.028-14.217-2.467-4.989-.508-1.027 1.181.654 5.732 3.178 1.63.904 4.561 9.226 4.074-8.238 2.466-4.99 1.523-3.08 2.467-4.988 3.25-6.574-7.554 4.187-5.732 3.178-5.732-3.178-8.913-4.941 2.673 5.408 2.7 1.496 5.731 3.179 5.873 3.256-2.466 4.988-7.508-4.163-1.63-.903-5.733-3.178-1.18-.655-4.329-8.756-.496-1.001A24.897 24.897 0 0 0 0 25.013C0 38.462 10.616 49.43 23.926 49.999z"/></g></g></g></g></svg>