<svg xmlns="http://www.w3.org/2000/svg" width="40" height="47" viewBox="0 0 40 47"><g><g><g><path fill="#e24723" d="M25.314 21.802l-6.412 6.411a1.375 1.375 0 0 1-1.95 0l-2.45-2.45a1.378 1.378 0 1 1 1.95-1.949l1.475 1.476 5.438-5.437a1.378 1.378 0 1 1 1.949 1.949zM20 14.538c-4.935 0-8.95 4.014-8.95 8.95 0 4.934 4.015 8.95 8.95 8.95s8.95-4.016 8.95-8.95c0-4.936-4.015-8.95-8.95-8.95z"/></g><g><path fill="#e24723" d="M20 35.194c-6.455 0-11.706-5.252-11.706-11.707 0-6.455 5.25-11.706 11.706-11.706 6.455 0 11.706 5.251 11.706 11.706 0 6.455-5.251 11.707-11.706 11.707zm19.954-22.449l-.002-.037c-.02-.45-.034-.928-.042-1.46-.038-2.59-2.097-4.732-4.688-4.876-5.4-.302-9.578-2.063-13.148-5.542l-.03-.03a3.006 3.006 0 0 0-4.086 0l-.03.03c-3.57 3.48-7.748 5.24-13.149 5.542C2.19 6.516.13 8.659.092 11.249a48.388 48.388 0 0 1-.043 1.46l-.002.084c-.105 5.508-.235 12.361 2.058 18.582 1.26 3.421 3.17 6.395 5.674 8.84 2.853 2.784 6.59 4.994 11.106 6.568a3.434 3.434 0 0 0 1.116.19 3.373 3.373 0 0 0 1.117-.19c4.511-1.578 8.244-3.789 11.094-6.573 2.504-2.445 4.413-5.42 5.675-8.841 2.301-6.24 2.171-13.106 2.067-18.624z"/></g></g></g></svg>