<svg xmlns="http://www.w3.org/2000/svg" width="40" height="40" viewBox="0 0 40 40"><g><g><path fill="#fffdf3" d="M12.872 33.135c.775-.559.376-1.885-.582-1.885H9.411c-.428 0-.808-.165-.94-.57l-.89-2.736a.97.97 0 0 0-.94-.678.97.97 0 0 0-.94.678l-.89 2.737c-.133.404-.513.569-.941.569H.99c-.957 0-1.355 1.326-.58 1.885l2.329 1.68c.346.25.492.694.36 1.098l-.938 2.72c-.04.12-.055.239-.05.351.028.73.948 1.23 1.62.746l2.328-1.68a.992.992 0 0 1 1.163 0l2.33 1.68c.67.484 1.586-.015 1.619-.746a.986.986 0 0 0-.05-.352l-.938-2.719a.978.978 0 0 1 .36-1.097l2.329-1.68zm26.718 0c.775-.559.377-1.885-.58-1.885h-2.88c-.428 0-.808-.165-.94-.57l-.89-2.736a.97.97 0 0 0-.94-.678.97.97 0 0 0-.941.678l-.89 2.737c-.132.404-.512.569-.94.569h-2.88c-.957 0-1.356 1.326-.58 1.885l2.329 1.68c.346.25.491.694.359 1.098l-.937 2.72c-.04.12-.055.239-.051.351.029.73.949 1.23 1.62.746l2.33-1.68a.992.992 0 0 1 1.162 0l2.329 1.68c.671.484 1.586-.015 1.62-.746a.986.986 0 0 0-.05-.352l-.938-2.719a.978.978 0 0 1 .36-1.097l2.328-1.68zm-13.359-5.469c.775-.559.377-1.885-.581-1.885h-2.88c-.428 0-.807-.165-.94-.57l-.89-2.736a.97.97 0 0 0-.94-.678.97.97 0 0 0-.94.678l-.89 2.737c-.132.404-.512.57-.94.57h-2.88c-.958 0-1.356 1.325-.581 1.884l2.33 1.68c.346.25.491.694.359 1.099l-.938 2.718c-.04.121-.055.24-.05.353.029.73.948 1.23 1.62.745l2.329-1.68a.992.992 0 0 1 1.162 0l2.33 1.68c.67.484 1.586-.015 1.62-.745a.986.986 0 0 0-.05-.353l-.939-2.718a.978.978 0 0 1 .36-1.098l2.33-1.68zM20 3.125a5.71 5.71 0 0 1 5.703 5.703A5.71 5.71 0 0 1 20 14.531a5.71 5.71 0 0 1-5.703-5.703A5.71 5.71 0 0 1 20 3.125zM6.475 24.267a1.561 1.561 0 0 0 2.168-.43 13.558 13.558 0 0 1 11.29-6.024c4.53 0 8.744 2.242 11.27 5.997a1.562 1.562 0 1 0 2.593-1.744 16.676 16.676 0 0 0-8.22-6.399 8.815 8.815 0 0 0 3.252-6.839C28.828 3.96 24.868 0 20 0c-4.868 0-8.828 3.96-8.828 8.828a8.814 8.814 0 0 0 3.209 6.804A16.672 16.672 0 0 0 6.045 22.1a1.563 1.563 0 0 0 .43 2.167z"/></g></g></svg>