<?xml version="1.0" standalone="no"?>
<!DOCTYPE svg PUBLIC "-//W3C//DTD SVG 20010904//EN"
 "http://www.w3.org/TR/2001/REC-SVG-20010904/DTD/svg10.dtd">
<svg version="1.0" xmlns="http://www.w3.org/2000/svg"
 width="700.000000pt" height="700.000000pt" viewBox="0 0 700.000000 700.000000"
 preserveAspectRatio="xMidYMid meet">
<metadata>
Created by potrace 1.11, written by Peter Selinger 2001-2013
</metadata>
<g transform="translate(0.000000,700.000000) scale(0.100000,-0.100000)"
fill="#000000" stroke="none">
<path d="M3318 6985 c-2 -1 -48 -6 -103 -9 -55 -4 -109 -9 -120 -11 -11 -2
-42 -7 -70 -10 -87 -10 -177 -26 -285 -52 -58 -13 -113 -26 -123 -28 -71 -15
-343 -106 -422 -140 -16 -7 -73 -32 -125 -55 -99 -44 -287 -140 -330 -170 -14
-9 -30 -19 -35 -21 -34 -13 -205 -133 -198 -139 4 -4 40 -25 78 -45 39 -21 88
-48 110 -60 22 -13 65 -36 95 -53 30 -16 215 -119 410 -227 353 -197 775 -430
880 -488 30 -16 81 -45 113 -63 32 -19 60 -34 62 -34 2 0 26 -13 52 -28 26
-16 84 -48 128 -72 44 -24 93 -51 108 -61 29 -17 30 -16 100 22 40 22 79 44
87 49 8 5 125 70 260 144 135 75 274 153 310 172 56 32 312 174 465 259 28 15
79 43 115 63 36 19 81 44 100 55 19 11 116 65 215 120 99 54 203 112 232 128
28 16 72 40 97 53 l46 24 -38 29 c-43 34 -190 133 -197 133 -3 0 -28 15 -57
33 -214 136 -574 288 -873 367 -95 26 -141 36 -240 55 -104 20 -228 38 -360
51 -58 6 -482 14 -487 9z"/>
<path d="M611 5452 c-199 -304 -337 -591 -435 -902 -20 -63 -38 -124 -40 -135
-3 -11 -16 -67 -30 -125 -25 -105 -50 -234 -61 -326 -4 -27 -8 -59 -10 -72
-24 -150 -24 -599 0 -787 2 -16 7 -50 10 -75 6 -50 11 -80 25 -155 5 -27 12
-61 14 -75 104 -557 409 -1168 806 -1615 47 -53 245 -251 295 -295 91 -79 164
-139 235 -190 41 -30 76 -58 78 -62 2 -5 8 -8 13 -8 6 0 34 -18 64 -40 30 -22
56 -40 58 -40 2 0 45 -25 95 -55 86 -52 274 -150 373 -194 219 -97 565 -202
779 -236 19 -3 42 -8 50 -10 14 -3 62 -10 145 -20 54 -6 149 -15 212 -20 75
-6 82 -34 -57 245 -56 113 -178 358 -270 545 -92 187 -283 574 -425 860 -142
286 -344 696 -450 910 -106 215 -237 480 -292 590 -128 259 -123 243 -71 212
24 -13 79 -43 123 -67 44 -24 85 -46 90 -50 6 -4 35 -21 65 -37 30 -17 201
-111 380 -210 179 -99 348 -193 375 -208 120 -66 103 -42 269 -378 84 -172
227 -460 316 -642 l163 -329 83 164 c46 91 88 174 93 185 16 36 549 1115 1071
2170 461 931 670 1356 670 1361 0 2 -21 -7 -47 -22 -27 -15 -77 -43 -113 -62
-36 -19 -96 -53 -135 -75 -38 -22 -97 -54 -130 -72 -33 -18 -179 -99 -325
-180 -146 -81 -290 -161 -320 -178 -30 -17 -197 -109 -370 -205 -173 -96 -336
-186 -361 -200 l-47 -25 -63 36 c-35 19 -86 47 -114 62 -27 15 -63 35 -80 45
-43 25 -118 66 -205 113 -41 22 -79 43 -85 47 -10 8 -66 39 -175 98 -36 19
-78 43 -95 52 -16 10 -55 31 -85 48 -124 67 -898 497 -935 518 -22 13 -51 29
-65 36 -14 7 -41 22 -60 34 -86 52 -86 54 108 -339 l184 -374 47 -24 c40 -22
586 -324 666 -369 33 -19 763 -424 810 -450 17 -9 130 -72 252 -140 l222 -123
-78 -156 c-43 -86 -121 -242 -173 -348 l-94 -192 -29 18 c-17 9 -64 36 -105
58 -42 22 -152 83 -245 135 -94 52 -197 110 -230 128 -33 18 -73 40 -90 50
-16 9 -55 31 -85 47 -30 17 -71 39 -90 50 -19 11 -64 36 -100 55 -36 20 -207
114 -380 211 -173 96 -347 192 -386 213 -39 22 -167 93 -286 159 l-215 119
-183 371 c-100 203 -250 508 -334 677 -83 170 -153 308 -156 308 -3 0 -16 -17
-29 -38z"/>
<path d="M6145 5048 c-120 -244 -342 -693 -493 -998 -151 -305 -359 -726 -462
-935 -103 -209 -298 -603 -433 -875 -611 -1237 -721 -1459 -903 -1828 -107
-217 -194 -396 -194 -399 0 -2 26 -2 58 1 31 3 86 8 122 11 544 48 1102 245
1575 554 290 190 575 445 781 699 10 13 29 36 42 50 50 60 184 254 250 362
290 479 445 966 498 1560 7 80 7 424 0 500 -14 145 -17 177 -21 200 -2 14 -7
45 -10 70 -5 40 -15 94 -30 170 -3 14 -10 48 -16 75 -56 288 -215 690 -392
995 -54 91 -144 230 -151 230 -1 0 -100 -199 -221 -442z"/>
</g>
</svg>
